<svg xmlns="http://www.w3.org/2000/svg" viewBox="0 0 1024 1024"><circle cx="512" cy="512" r="495" style="fill:#5865f2;stroke:#2c2f33;stroke-miterlimit:10;stroke-width:34px"/><path d="M824.7,161.22l-34.09,38.63L987.2,576l-29.36,52.68A42.49,42.49,0,0,1,930,649.46L821.29,673.72s-40.5-149.23-205.12-159.66a33.53,33.53,0,0,1-24.56-13.26c-9.46-12.57,5.15,2.8-7-8.72-13.42-12.69-18.34,115-23.47,132.77C479.14,908.54,487,879,196.37,943L191,659.62A469.65,469.65,0,0,1,439.66,236.19C571.17,166.16,724.76,111,824.7,161.22Z" transform="translate(0)" style="fill:#7289da;stroke:#2c2f33;stroke-miterlimit:10;stroke-width:30px"/><polygon points="759.93 238.49 724.7 273.72 841.75 391.9 759.93 238.49" style="fill:#7289da;stroke:#23272a;stroke-miterlimit:10;stroke-width:34px"/><path d="M456.22,558.23c26.07-66,46.27-422.34-367.4-480a4.2,4.2,0,0,0-2.29,8c69.94,31.46,229.7,236,163.28,329.08-.15.22-58.8,78.68-58.95,78.89C32.66,716.9,203.61,757.88,196.29,943c-.15,3.82,14.54,1.2,18.18,0,45.74-15,131.14-10.16,210.23-110.23C466.18,780.32,456.12,558.47,456.22,558.23Z" transform="translate(0)" style="fill:#23272a;stroke:#2c2f33;stroke-miterlimit:10;stroke-width:6px"/><path d="M250.6,180s188.8,98.7,158.8,369.42a3.19,3.19,0,0,0,6,1.8h0a3.31,3.31,0,0,0,.32-1C456.23,266,259.18,163,259.18,163h0c-8.35-3.44-15.2,9.22-9.19,16.28Z" transform="translate(0)" style="fill:#5865f2"/><path d="M450.81,276.3C474.87,261,584.91,194.52,708,175.7a8.79,8.79,0,0,1,10,7.11l0,.08a8.77,8.77,0,0,1-7.3,10.23c-114.33,17.64-217.34,77.25-250.52,98a8.77,8.77,0,0,1-13.31-6h0A8.75,8.75,0,0,1,450.81,276.3Z" transform="translate(0)" style="fill:#2c2f33"/></svg>