<svg xmlns="http://www.w3.org/2000/svg" viewBox="0 0 908.72 232.89"><path d="M257.09,370.92,248.53,381l49.34,98.35-7.37,13.78a10.75,10.75,0,0,1-7,5.43l-27.28,6.35s-10.16-39-51.48-41.75a8.31,8.31,0,0,1-6.16-3.47c-2.37-3.29,1.29.73-1.76-2.28-3.36-3.32-4.6,30.07-5.89,34.72-20.57,74.18-18.6,66.45-91.54,83.2l-1.34-74.11c-.85-46.2,23.26-89,62.4-110.72C193.46,372.21,232,357.78,257.09,370.92Z" transform="translate(-68.21 -346.21)" style="fill:#7289da;stroke:#2c2f33;stroke-miterlimit:10;stroke-width:6px"/><polygon points="172.63 44.91 163.78 54.13 193.16 85.03 172.63 44.91" style="fill:#fff;stroke:#23272a;stroke-miterlimit:10;stroke-width:6px"/><path d="M164.61,474.73c6.55-17.26,11.62-110.43-92.2-125.51a1.05,1.05,0,0,0-1.19.93,1.09,1.09,0,0,0,.62,1.16c17.55,8.23,57.64,61.71,41,86.05L98,458c-39.7,58.23,3.2,68.94,1.36,117.36,0,1,3.65.31,4.56,0,11.48-3.94,32.91-2.66,52.76-28.83C167.11,532.8,164.59,474.79,164.61,474.73Z" transform="translate(-68.21 -346.21)" style="fill:#23272a;stroke:#2c2f33;stroke-miterlimit:10;stroke-width:6px"/><path d="M112.75,371.38s49.51,27,39.26,101.39" transform="translate(-68.21 -346.21)" style="fill:none;stroke:#fff;stroke-miterlimit:10;stroke-width:6px"/><path d="M162.83,400.43S189.78,379.6,220.59,374" transform="translate(-68.21 -346.21)" style="fill:none;stroke:#fff;stroke-miterlimit:10;stroke-width:6px"/><path d="M463.16,375.16a2.93,2.93,0,0,1,.79,1.93v1.06q0,5.84-8.5,16.87a26.2,26.2,0,0,0-4.05,12.21q0,.6-25.83,4-2.11,0-3,5.45a6.11,6.11,0,0,1-3,3.85q-.87,0-13.62,8.7h.6l12.75-6,.27.53c-.93,3.77-2.31,5.65-4.12,5.65Q409,433.34,393,444.22a24.36,24.36,0,0,0-7.57,4.85q4.44-2.13,19-8.1,20.44-9.57,20.92-9.57v.27A65,65,0,0,1,414.15,439l-23.9,66.34h.53a56.71,56.71,0,0,1,10.89-4.91v.33q-.68.79-13.88,9A177.06,177.06,0,0,1,366,523.57l-1.33,1.66q2.25-1.4,11.42-4.91a41.16,41.16,0,0,1,10.09-4.58,2,2,0,0,1,.2.8q-2.85,9.75-5.64,9.76-11.08,7.56-12,7.57l-.53.86h.33l13-6,.26.54q-4.51,13.34-5.44,13.61-9.5,1.4-10.89,1.39-1.94,0-11.09-2.72-6.84.66-17.47,7.57h-.53v-.27q8.43-22,8.43-22.84,5.12-3,17.4-11.15a3.58,3.58,0,0,0,2.46-1.6h-.27l-11.15,4.85c0,.49-2,1.39-6,2.72l-.26-.53,12-32.07q5.25-2.87,18.26-11.69h.27v-.33h-.6q-7.31,2.72-24.44,10.62v-.2q1.4-1.39,8.17-5.18a9,9,0,0,0,2.46-4.91A133.49,133.49,0,0,1,350.87,482a51.83,51.83,0,0,1-10.1,4.65v-.33q1.26-1.2,9.77-6.24a92,92,0,0,1,14.67-9.23q.8-1.53,7.37-19.86,2.93-6.71,5.45-14.14,4.38-1.67,11.42-7.37-2.52,1.33-24.77,10.62-6.37,3.86-7.9,3.86v-.54q21.57-13.47,25-16.33.87-3.25,3.26-9.5h-.54q-24.11,4.85-25.56,4.85v-.27q1.39-1.51,6.84-4.31,6.1-5,7.83-5.18v-.27h-.59q-11.49,5.91-16.27,7.37l-.27-.59q8.7-15.68,8.7-18.46.6-1.34,1.66-9.83c1.2-.67,5.71-1.37,13.55-2.13l25.9-4.31v.2a48.75,48.75,0,0,1-9.3,6.24v.33h.26q9.9-3.86,31.55-13.88h.59a72.24,72.24,0,0,1-12,7.57q-2.85,2.65-3.78,2.72V388h.27q7.1-2.73,16.53-7.37Q431.76,380,463.16,375.16ZM378.29,475.43v.33h.27c1.06-.44,1.59-.82,1.59-1.13H380A4.35,4.35,0,0,1,378.29,475.43Zm3.52-10.62h.27a64.8,64.8,0,0,0,17.46-7.57c1.82-1.11,2.72-1.75,2.72-1.93h-.33a81.51,81.51,0,0,0-19.25,8.7C382.1,464.45,381.81,464.72,381.81,464.81Zm12.49-72.52v.53A5.08,5.08,0,0,1,396,392v-.34h-.27A2.73,2.73,0,0,1,394.3,392.29Zm.26,12.49h.6q13.54-5.19,15.47-7.31v-.33h-.26a66.14,66.14,0,0,0-15.81,7.37Zm2.72,9V414a89.2,89.2,0,0,0,17.2-7q1-1,6.25-3.52a2.69,2.69,0,0,1,.19-.87h-.19q-6.64,1.53-19.4,8.24A16.32,16.32,0,0,0,397.28,413.74Zm14.15-25v.53c.75-.3,1.13-.57,1.13-.79h-.33A1.76,1.76,0,0,1,411.43,388.77Zm20.92,4.05h.26q10.69-3.18,15.27-7.37v-.2Q434.47,389.65,432.35,392.82Z" transform="translate(-68.21 -346.21)" style="fill:#23272a"/><path d="M562.43,397.8c.36.05.53.23.53.54q-1.26,2.32-5,15.14-5.58,14.2-8,22.84a70.81,70.81,0,0,1-7.17,4.25q-12.22,8.51-17.53,11.42l-.27.53h.27q2.12-1.72,12.48-5.31,21.64-10.09,22.31-10.09h.27c-.84.88-3.23,2.39-7.17,4.51a23.21,23.21,0,0,1-6.64,4.25l-12,34.27h.27q8.9-4.78,11.15-4.79-.66.87-17.53,11.16-17,11.43-17.53,11.42v.27h.53q10.77-4.65,19.13-8.77l.26.53a73.62,73.62,0,0,1-4.78,9.3,52.84,52.84,0,0,1-12.75,12.22q-9.3,8.89-19.92,11.69-12.75,6.11-19.65,6.11a58.43,58.43,0,0,1-17.53,2.39q-21.12,0-25.5-14.08a25.41,25.41,0,0,1-1.07-5.31v-1.07a61.15,61.15,0,0,1,1.6-9.82v-.27h-.53q-15.68,7.44-17,7.44,2.38-1.94,17.26-10.89,37.46-25,51.53-33.21h.27v.27q-7.17,17.92-7.17,19.39v.53q0,3.39,5,4.25,8.64,0,14.88-9.83l9.29-24.43q0-2.32,5.32-4c1.59-1.15,2.39-1.86,2.39-2.12v-.27q-5.72,2.13-5.85,2.13l-.26-.53,3.18-8.5,6.11-16.21q23.39-14.87,25-16.2h-.26q-3.72,2.32-16.21,7.17-15.33,7.17-15.93,7.17H508a61.4,61.4,0,0,1,10.89-7.17q3.25-9.83,4-9.83a24.43,24.43,0,0,1,9.83-2.92h4.25q3,0,7.71.27Q557.51,401.06,562.43,397.8Zm-61.62,18.33a.24.24,0,0,0,.26.27q-5.56,13.55-8,20.72-2.67,1.26-13.82,8.76c-1.15.44-1.77.89-1.86,1.33h.27q1.59-1.12,17.53-7.44,8.24-4.25,9-4.25v.27q-10.69,7.44-13.81,8.76-.74.87-2.13,5.85a81.67,81.67,0,0,0-3.71,8.76q-.67,0-13.28,5.85-34.2,14.67-48.61,21.24h-.27l15.14-10.09q5.58-2,5.58-6.64l8.23-22v-.26h-.26q-12.94,5.84-13.81,5.84,17.73-11.35,35.06-23.11c2.65-1.37,4-2.16,4-2.39h-.26q-3.53,1.8-12,5.32c-3.89,2.21-6.64,3.45-8.23,3.71a.24.24,0,0,0-.27-.26q1.86-5.11,5.32-13.55,10.35-3.72,15.4-3.72l6.91.8h1.06Q491.18,419.85,500.81,416.13Zm-55,92.17h.26a100.56,100.56,0,0,0,17.8-7.7l5.31-3.19v-.53q-8.83,2.39-20.45,9A5.33,5.33,0,0,0,445.83,508.3Zm32.4-.53V508a60.35,60.35,0,0,0,12.22-5.32c2.3-1.41,3.45-2.21,3.45-2.39h-.53l-9,3.46A62,62,0,0,0,478.23,507.77Zm24.17-32.14v.27h.27a123,123,0,0,0,22.84-9.3l8.5-5.31V461h-.8a96.12,96.12,0,0,0-25.5,11.42A13.42,13.42,0,0,0,502.4,475.63Zm22.05-39.84h.26a50,50,0,0,0,15.68-7.44h-.27A49.46,49.46,0,0,0,524.45,435.79Z" transform="translate(-68.21 -346.21)" style="fill:#23272a"/><path d="M620.07,401.59c.35,0,.53.26.53.8q-6.37,17.06-8,23.1-13,8-14.07,9h.26q3.2-1.61,19.66-8.5,4.38-2.92,6.37-2.93,0,.27-8,5.32a19,19,0,0,1-6.64,4c-.75.58-1.55,2.7-2.39,6.38h.27q6.51-3.72,8.76-3.72c-1.24,1.1-4.87,3.41-10.89,6.9q-12.21,8.84-17.53,11.16c-1.24,1.24-2,1.86-2.39,1.86v.26h.27Q597.1,450.6,604.4,447a2,2,0,0,1,.27.8q-12.49,35.32-12.49,35.86-3.52,10.62-6.37,17.26h.79q4.18-1.06,21.78-3.19a36.16,36.16,0,0,1,10.36-1.86,2.52,2.52,0,0,1,1.6,2.66q0,4.65-9.83,16.47-3.19,6.57-3.19,11.42l-17,2.39h-.8v-.27q0-.45,9-5.84l4.78-3.45h-.27q-3.39,2.19-15.67,6.9A258.61,258.61,0,0,1,563,537.05q-9.3,5.06-10.36,5.05h-.26q0-.2,14.34-9.56h-.8a91.86,91.86,0,0,1-12.48,2.39,173.81,173.81,0,0,0-19.65,6.37l-.27-.53q1.46-2.06,4-10.36c.4-.93,2.62-2.52,6.64-4.78a65.5,65.5,0,0,1,8.24-5.58h-.27q-2.19,1.28-13.28,5.58-18,8.5-18.59,8.5v-.26q.79-.87,11.42-7.17,30.07-20.19,30.28-20.19h-.26q-3.14,2.25-13.55,5.84-16.27,7.71-17,7.7.46-.72,14.34-9.56,2.13-7.1,19.13-54.18,6.9-16.2,6.9-19.13h-.26l-9,4a57.24,57.24,0,0,1-9.3,4.25v-.27q23.45-14.94,50.2-32.67,9.16-6,16.2-10.09C619.27,402.12,619.54,401.85,620.07,401.59Zm-54.19,87.65v.27h.54q12-4.12,15.14-7.44v-.26a59.59,59.59,0,0,0-14.35,6.37C566.86,488.89,566.42,489.24,565.88,489.24Zm.27-14.34v.27a71.8,71.8,0,0,1,9-3.19l10.36-5.85v-.53q-2.92,0-17.27,7.71C567,474,566.24,474.5,566.15,474.9ZM625.38,387l.27.53q-2.19,10.37-6.11,10.36-41,18.06-51.27,22.84v-.53q13-7.77,13-9.29A152.49,152.49,0,0,1,586.34,396q.93-4.51,2.65-4.51,1.86.79,9.57,1.32,2.52,0,12.75-4.25A66.06,66.06,0,0,1,625.38,387Z" transform="translate(-68.21 -346.21)" style="fill:#23272a"/><path d="M770.14,385.05h.27v.27q-3.25,2.85-17.53,11.16-18.6,12.75-28.16,18.06-1.59,1.26-1.59,1.59,15.81-6.63,36.92-16.47l1.33-.26a19.06,19.06,0,0,1,3.19,11.15v2.13q-2.33,13.68-7.44,22.58-18.6,30-49.67,40.64-7.31,1.86-22.84,4.25Q680,494,679.3,494q-5.44,3-14.61,9.29a2.28,2.28,0,0,0-1.86,1.33h.27q11.55-5.37,14.88-6.64c0,.18.08.27.26.27q-6.3,18.06-7.44,18.06-9.09,5.58-24.17,5.58-8.37,2.79-18.86,11.15a3.07,3.07,0,0,1-2.65,1.86q1-2.05,4-11.42l5-13.28h-.27q-.46,0-15.93,7.44a8,8,0,0,1-2.66.79v-.26q2.19-2.05,10.89-6.91,17.54-12,28.42-18.32v-.54l-16.47,7.44-.26-.53q.72-1.39,4-11.16a57.16,57.16,0,0,0,4-11.68q4.11-1.73,26.82-17.27l6.38-4h-.27L627,478.29V478q1.26-1.26,8.76-5.58,9.76-7.23,15.14-9.56.79-1.12,10.89-30.81a44.05,44.05,0,0,0,3.72-9.56h-.26q-12.88,6.11-14.08,6.11,18.92-12,32.14-21.52c2.83-1.33,4.25-2.12,4.25-2.39H687q-16.41,7.71-17.53,8l-.27-.53q1.59-2.32,4-11.16a175.55,175.55,0,0,0,29.22-6.11q11.22-2.92,37.45-5.58h.27a33,33,0,0,1,13.81,2.93,72.28,72.28,0,0,0,12-5.32A30.56,30.56,0,0,0,770.14,385.05Zm-98.81,49.68h.27A100.72,100.72,0,0,0,689.4,427l5.31-3.19v-.53q-8.84,2.4-20.45,9A5.37,5.37,0,0,0,671.33,434.73Zm5.32,8.23h.26q12.29-4.18,15.14-7.44h-.26a53.6,53.6,0,0,0-14.08,6.11ZM696,449.87h.26q12.42-7.38,15.41-9.57,4.44-4.91,4.78-9.29,0-4.51-7.7-4.52H708a22.29,22.29,0,0,0-4.25,1.33q-2.65,8-7.44,20.45A3.33,3.33,0,0,1,696,449.87Zm11.42,9.56H708A86.2,86.2,0,0,0,725.52,452a35.58,35.58,0,0,0,5.31-3.19l.27-.53h-.27q-11.69,3.78-15.14,6.38Q707.59,459,707.46,459.43Zm22-27.63v.27a47.86,47.86,0,0,0,15.67-7.44h-.27A56.9,56.9,0,0,0,729.51,431.8Z" transform="translate(-68.21 -346.21)" style="fill:#23272a"/><path d="M852.62,389.7h.27q-1.2,1.26-9.3,5.85l-32.41,21.51h.53q3.19-2.32,15.68-6.9L851.82,399v.27l-13.54,9q-5.58,47.67-6.11,51h.26q15.29-7.17,15.94-7.17v.27q-3.52,3.18-13,8.23a200,200,0,0,1-22.57,14.88l-.8,1.06h.27q15.6-7.37,18.32-8.23l.27.53v.79a62.31,62.31,0,0,0-1.33,11.16q7.71-4.24,9.83-4.25-1.8,1.67-11.69,7.44a120.54,120.54,0,0,1-12.48,8.23l-.27.53h.27q4.71-1.92,13.28-6.11l.26.53q-.8,3.85-2.65,23.64c-.67,2-1.37,6.47-2.13,13.29h-.26q-3.25-2.86-17.53-5.32h-1.86l-7.71,1.07a16.88,16.88,0,0,1-7.7-2.13l.53-3.45h-.26q-6,3.45-8.24,3.45.27-.53,9-5.84,0-1.33,8.5-5.85,4.19-3.12,9.3-6.37h-.27l-34,15.14v-.27a47.22,47.22,0,0,1,8-5q4.26-3.19,10.1-6.91a49.43,49.43,0,0,1,.79-5q-3.18,0-19.65,3.46-4.71,0-5.58,2.92-2,6.1-3.72,6.11-3,2.52-14.87,9.29l-.27.54h.27L762,513.75l.27.53-7.7,14.61q0,2.39-5.58,2.39h-4.52q-5.78,0-17.53-5.85a12.06,12.06,0,0,0-3.19-.53H719a.47.47,0,0,1-.53-.53q.74-.47,3.72-6.37l20.45-13,3.46-2.39h-.27q-1.73,1.53-15.4,6.64l-17.8,8.23v-.26q13.14-9,16.73-10.63l4.78-8.23a46.24,46.24,0,0,0,4.25-7.17q9-5.31,18.33-11.69a135.21,135.21,0,0,1,12.75-8.23h-.26q-35.46,15.67-44.63,20.18h-.53v-.26q.74-.87,12-7.7a63.84,63.84,0,0,1,11.43-7.18c.48-.39,1.72-2.61,3.71-6.64q7.77-11.75,9.83-16.46,7.24-4.12,22.31-14.35c1.6-.48,2.39-.93,2.39-1.33v-.26q-2.91,2.06-12.75,5.58-9.28,5.18-14.07,6.37v-.53q9.55-5.18,9.56-7.7,7.23-11.43,9-15.14,4.78-2.73,17-10.89,3.18-1.4,4-2.66h-.26q-1.33,1-13.55,5.84Q764.57,428,762.31,428q1.2-1.2,9.3-5.84,9.61-7,13.54-8.77a82.73,82.73,0,0,1,6.11-10.09q2.4-1.53,14.61-2.66l24.7-4.25h.8v.27a97.29,97.29,0,0,1-9.3,5.84c-.7.53-1.06.89-1.06,1.06v.27q4-2.38,17.8-7.7Q852,389.71,852.62,389.7ZM760.18,491.17h.27a71.8,71.8,0,0,1,9-3.19,81.82,81.82,0,0,0,10.1-6.11h-.27Q764.64,486.46,760.18,491.17Zm41.71-51.8q-.74,2.65-6.38,11.69-2.25,5.18-10.36,19.39V471h.27q2.93-.8,12-2.39.79-12.21,3.72-12.22l16.2-10.62h-.53q-14.28,6.71-16.47,7.44a2.16,2.16,0,0,1-.26-.8,109.2,109.2,0,0,0,2.39-13Zm-.27-8.23v.26h.8a87.91,87.91,0,0,0,16.73-7.17,40.44,40.44,0,0,1,5.31-2.92l.54-.8v-.26h-.27a106.61,106.61,0,0,0-19.39,8.23Z" transform="translate(-68.21 -346.21)" style="fill:#23272a"/><path d="M940.27,392.49h.27v.27q-1.26,1.19-9,5.84a95.24,95.24,0,0,1-14.61,9.3c-.89.71-1.33,1.15-1.33,1.33v.26q3.45-2.39,12.75-5.58,15.67-7.43,16.73-7.43H948q6.57,0,15.93,5.31a16.74,16.74,0,0,1,6.64,13.81v.53q-7.83,5.72-21.78,14.35H949A155,155,0,0,1,966.3,423q9.63-4.79,10.36-4.78h.27c0,.22-2.22,1.72-6.64,4.51a56.79,56.79,0,0,0-2.92,10.36q-1.07,1.33-15.67,10.36v.27H952q1.59-1.2,14.08-6.11,8.16-4.26,9.56-4.52h.27q-1.39,1.8-12.75,8-.68.66-6.11,9-14.81,15.48-19.66,17.8c-.18.53-.35.79-.53.79a31.28,31.28,0,0,1,2.39,7.18v.26Q937,478,927.79,483.6a58.64,58.64,0,0,1-8.77,5.58v.53q3.79-2.26,21.25-9.3,15.35-7.37,17.27-8v.27q-2.38,1.86-15.67,10.09,6.38,18.66,12.75,34a24.2,24.2,0,0,1,.53,2.92,21.34,21.34,0,0,1-7.7,1.86q-3.39,0-16.21-4.78h-1.59q-2.13,0-10.63,2.39h-.26q-1.47-.47-5.58-12.22-6.76-13.55-11.69-25.76c-.26,0-.53-.27-.79-.8a41.18,41.18,0,0,1-8.24,2.92A83.34,83.34,0,0,1,888.21,495q0,4.78-6.9,7.44-11.43,7.69-12,7.7v.27h.53Q872,509,883.7,504.32a70.07,70.07,0,0,1,12.48-5.58h.27q-.47.74-12,8-.79,0-5.84,15.4-4.18,3.46-13.28,5.85-6.32,1.86-17.27,1.86-9.61,3.12-14.87,6.9c0-.18-.09-.26-.27-.26q6.12-15.81,7.44-20.19,4.59-2.46,21.52-13.81h-.27q-2.65,1.79-16.47,7.17-15.79,7.44-16.47,7.44h-.26l15.67-10.36q.52-2.26,5.31-14.88,0-2.52,5.05-4.78l31.61-20.72h-.27q-40.37,17.81-49.93,22.58h-.54v-.26q.35-.6,10.1-6.38a44.36,44.36,0,0,1,9.56-6.11q.79-.86,2.66-7.7l13-34.53.53-1.86H871q-17.13,7.9-19.13,8.5v-.27L898.31,410H898a114.74,114.74,0,0,1-11.95,5.31,46.36,46.36,0,0,1-9.83,4.52,2,2,0,0,1-.27-.8c2.53-7.79,4.47-11.68,5.85-11.68q1.13,0,41.17-7.18,1.2-.19,10.62-4.78A31.67,31.67,0,0,0,940.27,392.49ZM864,491.57v.26h.27q12.08-4.11,15.14-7.43v-.27A59.6,59.6,0,0,0,864,491.57Zm2.66-29.75v.26h.53a74.31,74.31,0,0,1,9-3.18q10.29-5.85,10.36-6.11h-.53Q879,454.32,867.76,461C867.76,461.55,867.41,461.82,866.7,461.82Zm45.42-29.22h-1.06q-2.2,8-5,8l-10.89,7.17h.53a61.89,61.89,0,0,1,11.42-5.31l.27.53a33.67,33.67,0,0,0-2.92,7.7H905q9.16-1.46,13-4.78,5.31-4.32,5.31-9.56,0-3.72-3.18-3.72c0-.35-1.42-.62-4.25-.8A8.78,8.78,0,0,1,912.12,432.6Zm3.19,26h.53q2.32-1.06,11.95-4.51,9.5-5.25,10.89-6.65h-.53a82.31,82.31,0,0,0-14.34,5.85Q916,457.51,915.31,458.63Zm9,2.66a67.37,67.37,0,0,0,14.87-6.64l.53-.8v-.27a61.44,61.44,0,0,0-15.4,7.18Zm1.59-48.35v.27h.8a73.39,73.39,0,0,0,17-7.7,8.61,8.61,0,0,0,2.12-1.6h-.53a74.7,74.7,0,0,1-9.56,3.46A50.38,50.38,0,0,1,925.93,412.94Zm0,10.63v.26q6.57-1.12,23.91-10.09,6.76-3.45,7.43-4.78v-.27l-10.36,3.46Q935.42,417.6,927,422.51C926.28,423,925.93,423.39,925.93,423.57Z" transform="translate(-68.21 -346.21)" style="fill:#23272a"/></svg>