<svg xmlns="http://www.w3.org/2000/svg" viewBox="0 0 908.72 269.01"><path d="M257.09,370.92,248.53,381l49.34,98.35-7.37,13.78a10.75,10.75,0,0,1-7,5.43l-27.28,6.35s-10.16-39-51.48-41.75a8.31,8.31,0,0,1-6.16-3.47c-2.37-3.29,1.29.73-1.76-2.28-3.36-3.32-4.6,30.07-5.89,34.72-20.57,74.18-18.6,66.45-91.54,83.2l-1.34-74.11c-.85-46.2,23.26-89,62.4-110.72C193.46,372.21,232,357.78,257.09,370.92Z" transform="translate(-68.21 -346.21)" style="fill:#7289da;stroke:#2c2f33;stroke-miterlimit:10;stroke-width:6px"/><polygon points="172.63 44.91 163.78 54.13 193.16 85.03 172.63 44.91" style="fill:#fff;stroke:#23272a;stroke-miterlimit:10;stroke-width:6px"/><path d="M164.61,474.73c6.55-17.26,11.62-110.43-92.2-125.51a1.05,1.05,0,0,0-1.19.93,1.09,1.09,0,0,0,.62,1.16c17.55,8.23,57.64,61.71,41,86.05L98,458c-39.7,58.23,3.2,68.94,1.36,117.36,0,1,3.65.31,4.56,0,11.48-3.94,32.91-2.66,52.76-28.83C167.11,532.8,164.59,474.79,164.61,474.73Z" transform="translate(-68.21 -346.21)" style="fill:#23272a;stroke:#2c2f33;stroke-miterlimit:10;stroke-width:6px"/><path d="M112.75,371.38s49.51,27,39.26,101.39" transform="translate(-68.21 -346.21)" style="fill:none;stroke:#fff;stroke-miterlimit:10;stroke-width:6px"/><path d="M162.83,400.43S189.78,379.6,220.59,374" transform="translate(-68.21 -346.21)" style="fill:none;stroke:#fff;stroke-miterlimit:10;stroke-width:6px"/><text transform="translate(271.9 182.15)" style="font-size:135.99661254882812px;fill:#23272a;font-family:Run!-Demo, "Run! Demo"">Tul<tspan x="292.45" y="0" style="letter-spacing:-0.1464880236840257em">p</tspan><tspan x="393.12" y="0">ar</tspan></text></svg>