<svg xmlns="http://www.w3.org/2000/svg" viewBox="0 0 1010 1010"><circle cx="505" cy="505" r="495" style="fill:#fff;stroke:#2c2f33;stroke-miterlimit:10;stroke-width:20px"/><path d="M824.7,161.22l-34.09,38.63L987.2,576l-29.36,52.68A42.49,42.49,0,0,1,930,649.46L821.29,673.72s-40.5-149.23-205.12-159.66a33.53,33.53,0,0,1-24.56-13.26c-9.46-12.57,5.15,2.8-7-8.72-13.42-12.69-18.34,115-23.47,132.77C479.14,908.54,487,879,196.37,943L191,659.62A469.65,469.65,0,0,1,439.66,236.19C571.17,166.16,724.76,111,824.7,161.22Z" transform="translate(-7 -7)" style="fill:#7289da;stroke:#2c2f33;stroke-miterlimit:10;stroke-width:6px"/><polygon points="752.93 231.49 717.7 266.72 834.75 384.9 752.93 231.49" style="fill:#fff;stroke:#23272a;stroke-miterlimit:10;stroke-width:6px"/><path d="M456.22,558.23c26.07-66,46.27-422.34-367.4-480a4.2,4.2,0,0,0-2.29,8c69.94,31.46,229.7,236,163.28,329.08-.15.22-58.8,78.68-58.95,78.89C32.66,716.9,203.61,757.88,196.29,943c-.15,3.82,14.54,1.2,18.18,0,45.74-15,131.14-10.16,210.23-110.23C466.18,780.32,456.12,558.47,456.22,558.23Z" transform="translate(-7 -7)" style="fill:#23272a;stroke:#2c2f33;stroke-miterlimit:10;stroke-width:6px"/><path d="M249.54,163S446.83,266.13,406,550.73" transform="translate(-7 -7)" style="fill:none;stroke:#fff;stroke-miterlimit:10;stroke-width:6px"/><path d="M449.1,274.07s107.41-79.64,230.17-100.91" transform="translate(-7 -7)" style="fill:none;stroke:#fff;stroke-miterlimit:10;stroke-width:6px"/></svg>