<svg xmlns="http://www.w3.org/2000/svg" viewBox="0 0 909.56 872.88"><path d="M807.09,154.23,773,192.86,969.59,569l-29.36,52.68a42.52,42.52,0,0,1-27.87,20.79L803.68,666.73S763.18,517.5,598.56,507.07A33.5,33.5,0,0,1,574,493.81c-9.46-12.57,5.15,2.8-7-8.72-13.42-12.69-18.34,115-23.47,132.77-82,283.69-74.13,254.13-364.77,318.19l-5.35-283.42A469.63,469.63,0,0,1,422.05,229.2C553.56,159.17,707.15,104,807.09,154.23Z" transform="translate(-63.44 -68.17)" style="fill:#7289da;stroke:#2c2f33;stroke-miterlimit:10;stroke-width:6px"/><polygon points="678.88 163.33 643.65 198.56 760.7 316.74 678.88 163.33" style="fill:#fff;stroke:#23272a;stroke-miterlimit:10;stroke-width:6px"/><path d="M438.61,551.24c26.07-66,46.27-422.34-367.4-480a4.2,4.2,0,0,0-2.29,8c69.94,31.46,229.7,236,163.28,329.08-.15.22-58.8,78.68-58.95,78.89C15.05,709.91,186,750.89,178.68,936.05c-.15,3.82,14.54,1.2,18.18,0C242.6,921,328,925.89,407.09,825.82,448.57,773.33,438.51,551.48,438.61,551.24Z" transform="translate(-63.44 -68.17)" style="fill:#23272a;stroke:#2c2f33;stroke-miterlimit:10;stroke-width:6px"/><path d="M231.93,156S429.22,259.14,388.4,543.74" transform="translate(-63.44 -68.17)" style="fill:none;stroke:#fff;stroke-miterlimit:10;stroke-width:6px"/><path d="M431.49,267.08S538.9,187.44,661.66,166.17" transform="translate(-63.44 -68.17)" style="fill:none;stroke:#fff;stroke-miterlimit:10;stroke-width:6px"/></svg>