<svg xmlns="http://www.w3.org/2000/svg" viewBox="0 0 912.28 232.89"><path d="M257.09,370.92,248.53,381l49.34,98.35-7.37,13.78a10.75,10.75,0,0,1-7,5.43l-27.28,6.35s-10.16-39-51.48-41.75a8.31,8.31,0,0,1-6.16-3.47c-2.37-3.29,1.29.73-1.76-2.28-3.36-3.32-4.6,30.07-5.89,34.72-20.57,74.18-18.6,66.45-91.54,83.2l-1.34-74.11c-.85-46.2,23.26-89,62.4-110.72C193.46,372.21,232,357.78,257.09,370.92Z" transform="translate(-68.21 -346.21)" style="fill:#1a1a1a;stroke:#2c2f33;stroke-miterlimit:10;stroke-width:6px"/><polygon points="172.63 44.91 163.78 54.13 193.16 85.03 172.63 44.91" style="fill:#fff;stroke:#23272a;stroke-miterlimit:10;stroke-width:6px"/><path d="M164.61,474.73c6.55-17.26,11.62-110.43-92.2-125.51a1.05,1.05,0,0,0-1.19.93,1.09,1.09,0,0,0,.62,1.16c17.55,8.23,57.64,61.71,41,86.05L98,458c-39.7,58.23,3.2,68.94,1.36,117.36,0,1,3.65.31,4.56,0,11.48-3.94,32.91-2.66,52.76-28.83C167.11,532.8,164.59,474.79,164.61,474.73Z" transform="translate(-68.21 -346.21)" style="fill:#23272a;stroke:#2c2f33;stroke-miterlimit:10;stroke-width:6px"/><path d="M112.75,371.38s49.51,27,39.26,101.39" transform="translate(-68.21 -346.21)" style="fill:none;stroke:#fff;stroke-miterlimit:10;stroke-width:6px"/><path d="M162.83,400.43S189.78,379.6,220.59,374" transform="translate(-68.21 -346.21)" style="fill:none;stroke:#fff;stroke-miterlimit:10;stroke-width:6px"/><path d="M466.72,354.48a2.93,2.93,0,0,1,.79,1.92v1.07q0,5.83-8.5,16.86A26.24,26.24,0,0,0,455,386.55q0,.6-25.83,4.05c-1.42,0-2.41,1.82-3,5.45a6.12,6.12,0,0,1-3,3.85q-.86,0-13.61,8.7h.6l12.75-6,.26.53q-1.39,5.66-4.11,5.65-6.45,3.84-22.51,14.74a24.18,24.18,0,0,0-7.57,4.85q4.44-2.13,19-8.11,20.44-9.55,20.92-9.56V411a65,65,0,0,1-11.16,7.37L393.8,484.7h.53a56.81,56.81,0,0,1,10.9-4.92v.33q-.68.81-13.88,9a178.27,178.27,0,0,1-21.78,13.81l-1.33,1.66q2.25-1.4,11.42-4.91a40.61,40.61,0,0,1,10.09-4.58,2,2,0,0,1,.2.79q-2.85,9.76-5.64,9.76-11.1,7.58-12,7.57l-.53.87h.33l13-6,.27.53q-4.51,13.35-5.45,13.62-9.5,1.39-10.89,1.39-1.92,0-11.08-2.72-6.85.66-17.47,7.57H340v-.27q8.43-22.05,8.43-22.84,5.12-3,17.4-11.16a3.56,3.56,0,0,0,2.46-1.59H368l-11.15,4.85c0,.48-2,1.39-6,2.72l-.27-.53,12-32.08q5.24-2.85,18.26-11.68h.26v-.34h-.59q-7.31,2.73-24.44,10.63V466q1.39-1.39,8.17-5.18a8.94,8.94,0,0,0,2.45-4.91,131.5,131.5,0,0,1-12.21,5.44,51.83,51.83,0,0,1-10.1,4.65v-.33q1.26-1.2,9.76-6.24a91.81,91.81,0,0,1,14.68-9.23q.8-1.53,7.37-19.86,2.92-6.71,5.45-14.14Q386,414.51,393,408.8q-2.53,1.32-24.77,10.62c-4.25,2.57-6.89,3.85-7.9,3.85v-.53q21.57-13.49,25-16.33.87-3.26,3.25-9.5h-.53q-24.1,4.84-25.56,4.85v-.27q1.39-1.53,6.84-4.31,6.11-5,7.83-5.18v-.27h-.6q-11.48,5.91-16.26,7.37l-.27-.6q8.7-15.66,8.7-18.46.6-1.32,1.66-9.83,1.79-1,13.55-2.12l25.89-4.32v.2a47.4,47.4,0,0,1-9.29,6.24v.34h.26q9.9-3.85,31.54-13.88h.6a72.67,72.67,0,0,1-12,7.57q-2.85,2.65-3.78,2.72v.33h.26q7.11-2.71,16.54-7.37Q435.3,359.32,466.72,354.48ZM381.85,454.75v.33h.27c1.06-.44,1.59-.82,1.59-1.13h-.2A4.52,4.52,0,0,1,381.85,454.75Zm3.52-10.63h.27a64.49,64.49,0,0,0,17.46-7.57c1.82-1.1,2.72-1.75,2.72-1.92h-.33a81.74,81.74,0,0,0-19.26,8.7C385.66,443.77,385.37,444,385.37,444.12Zm12.48-72.51v.53a5.41,5.41,0,0,1,1.66-.8V371h-.26A2.72,2.72,0,0,1,397.85,371.61Zm.27,12.48h.6q13.54-5.18,15.47-7.3v-.33h-.27a65.87,65.87,0,0,0-15.8,7.37Zm2.72,9v.26a89.2,89.2,0,0,0,17.2-7q1-1,6.24-3.51a2.69,2.69,0,0,1,.2-.87h-.2q-6.63,1.53-19.39,8.24A15.89,15.89,0,0,0,400.84,393.06Zm14.15-25v.53c.75-.31,1.13-.57,1.13-.8h-.34A1.65,1.65,0,0,1,415,368.09Zm20.91,4.05h.27q10.69-3.18,15.27-7.37v-.2Q438,369,435.9,372.14Z" transform="translate(-68.21 -346.21)" style="fill:#23272a"/><path d="M566,377.12c.35.05.53.22.53.53q-1.26,2.33-5,15.14-5.58,14.22-8,22.85a72.55,72.55,0,0,1-7.18,4.25q-12.21,8.49-17.53,11.42l-.26.53h.26q2.13-1.72,12.49-5.31,21.65-10.09,22.31-10.1h.27c-.85.89-3.24,2.39-7.18,4.52a23.14,23.14,0,0,1-6.64,4.25L538.1,459.46h.27q8.89-4.77,11.15-4.78-.66.87-17.53,11.16-17,11.42-17.53,11.42v.26H515q10.75-4.63,19.13-8.76l.26.53a73.62,73.62,0,0,1-4.78,9.3,52.84,52.84,0,0,1-12.75,12.22q-9.3,8.9-19.92,11.68-12.75,6.12-19.66,6.11A58.06,58.06,0,0,1,459.74,511q-21.11,0-25.5-14.08a25.74,25.74,0,0,1-1.06-5.31v-1.06a61.38,61.38,0,0,1,1.6-9.83v-.26h-.54q-15.66,7.44-17,7.43,2.4-1.92,17.27-10.89Q472,452,486,443.79h.27v.27q-7.19,17.93-7.18,19.39V464c0,2.26,1.69,3.67,5.05,4.25q8.63,0,14.87-9.83l9.3-24.44c0-1.55,1.77-2.87,5.31-4,1.6-1.15,2.39-1.86,2.39-2.13v-.26c-3.8,1.42-5.75,2.12-5.84,2.12l-.26-.53,3.18-8.5,6.11-16.2q23.37-14.88,25-16.2h-.27q-3.72,2.33-16.2,7.17-15.33,7.17-15.94,7.17h-.26a61,61,0,0,1,10.89-7.17q3.26-9.82,4-9.83a24.43,24.43,0,0,1,9.83-2.92h4.25q3,0,7.7.26Q561.07,380.38,566,377.12Zm-61.62,18.33a.23.23,0,0,0,.26.26q-5.58,13.56-8,20.72-2.66,1.26-13.81,8.77c-1.15.44-1.77.88-1.86,1.33h.27q1.59-1.14,17.53-7.44,8.23-4.24,9-4.25v.26q-10.69,7.44-13.81,8.77c-.49.58-1.2,2.52-2.13,5.84a80.43,80.43,0,0,0-3.72,8.77q-.66,0-13.28,5.84-34.2,14.69-48.6,21.25H426l15.14-10.09q5.58-2,5.58-6.64l8.23-22v-.26h-.26q-13,5.84-13.82,5.84Q458.61,421,476,409.26q4-2.06,4-2.39h-.27q-3.51,1.8-12,5.31c-3.89,2.22-6.64,3.46-8.23,3.72,0-.18-.09-.26-.27-.26q1.86-5.11,5.31-13.55,10.37-3.72,15.41-3.72l6.91.8h1.06Q494.74,399.17,504.37,395.45Zm-55,92.17h.27a101.64,101.64,0,0,0,17.8-7.7l5.31-3.19v-.53q-8.83,2.39-20.45,9A5.36,5.36,0,0,0,449.38,487.62Zm32.41-.53v.26A59.79,59.79,0,0,0,494,482c2.3-1.42,3.45-2.21,3.45-2.39h-.53l-9,3.45A60.64,60.64,0,0,0,481.79,487.09ZM506,455v.26h.27a122.28,122.28,0,0,0,22.84-9.29l8.5-5.32v-.26h-.8a96.12,96.12,0,0,0-25.5,11.42A13.42,13.42,0,0,0,506,455ZM528,415.1h.26a49.56,49.56,0,0,0,15.67-7.43h-.26A49.56,49.56,0,0,0,528,415.1Z" transform="translate(-68.21 -346.21)" style="fill:#23272a"/><path d="M623.63,380.91c.35,0,.53.26.53.79q-6.37,17.07-8,23.11-13,8-14.08,9h.27q3.18-1.59,19.66-8.5c2.92-1.94,5-2.92,6.37-2.92q0,.27-8,5.31a19.09,19.09,0,0,1-6.64,4c-.75.57-1.55,2.7-2.39,6.37h.27c4.33-2.48,7.26-3.72,8.76-3.72q-1.86,1.67-10.89,6.91-12.22,8.84-17.53,11.16c-1.24,1.24-2,1.86-2.39,1.86v.26h.27q10.76-4.65,18.06-8.23a2.12,2.12,0,0,1,.26.79Q595.74,462.46,595.74,463q-3.53,10.63-6.38,17.27h.8q4.19-1.06,21.78-3.19a36.16,36.16,0,0,1,10.36-1.86,2.53,2.53,0,0,1,1.6,2.66q0,4.65-9.83,16.46-3.2,6.58-3.19,11.43l-17,2.39h-.8v-.27q0-.47,9-5.84l4.79-3.46h-.27q-3.39,2.21-15.67,6.91a258.61,258.61,0,0,1-24.44,10.89q-9.3,5-10.36,5h-.26q0-.2,14.34-9.56h-.8A93.78,93.78,0,0,1,557,514.25a172.73,172.73,0,0,0-19.66,6.37l-.26-.53q1.46-2.05,4-10.36.6-1.39,6.64-4.78a64.4,64.4,0,0,1,8.24-5.58h-.27q-2.19,1.26-13.28,5.58-18,8.51-18.59,8.5v-.27q.79-.85,11.42-7.17,30.08-20.17,30.28-20.18h-.27q-3.12,2.25-13.54,5.84-16.27,7.71-17,7.7.47-.72,14.34-9.56,2.13-7.11,19.13-54.19,6.9-16.2,6.9-19.12h-.27l-9,4a56.4,56.4,0,0,1-9.3,4.25v-.26q23.45-14.94,50.2-32.67,9.17-6,16.2-10.1C622.83,381.44,623.1,381.17,623.63,380.91Zm-54.19,87.65v.27H570q12-4.12,15.14-7.44v-.27a59.55,59.55,0,0,0-14.34,6.38C570.42,468.21,570,468.56,569.44,468.56Zm.27-14.34v.26a75.47,75.47,0,0,1,9-3.19l10.36-5.84v-.53q-2.93,0-17.27,7.7C570.5,453.29,569.8,453.82,569.71,454.22Zm59.23-87.92.27.53q-2.19,10.35-6.11,10.36-41,18.06-51.27,22.84v-.53q13-7.77,13-9.3a150.7,150.7,0,0,1,5-14.87c.61-3,1.5-4.52,2.65-4.52,1.24.53,4.43,1,9.56,1.33q2.53,0,12.75-4.25A66.22,66.22,0,0,1,628.94,366.3Z" transform="translate(-68.21 -346.21)" style="fill:#23272a"/><path d="M773.7,364.37H774v.27q-3.26,2.85-17.53,11.15-18.6,12.75-28.16,18.06c-1.06.85-1.59,1.38-1.59,1.6q15.79-6.65,36.92-16.47l1.33-.27a19.12,19.12,0,0,1,3.19,11.16V392q-2.34,13.68-7.44,22.57-18.6,30-49.67,40.64-7.31,1.86-22.85,4.25-4.57,13.82-5.31,13.81-5.45,3.06-14.61,9.3a2.23,2.23,0,0,0-1.86,1.33h.27q11.55-5.38,14.87-6.64c0,.18.09.26.27.26q-6.31,18.08-7.44,18.07-9.09,5.58-24.17,5.57-8.37,2.79-18.86,11.16a3.08,3.08,0,0,1-2.65,1.86q1-2.05,4-11.42l5.05-13.28h-.27q-.47,0-15.94,7.43a7.78,7.78,0,0,1-2.65.8v-.26q2.19-2.07,10.89-6.91,17.53-12,28.42-18.33v-.53l-16.47,7.44-.26-.53q.72-1.39,4-11.16a56.61,56.61,0,0,0,4-11.69q4.13-1.73,26.83-17.26l6.38-4h-.27l-51.8,23.11v-.26q1.28-1.26,8.77-5.58,9.76-7.23,15.14-9.56.79-1.12,10.89-30.81a44.12,44.12,0,0,0,3.72-9.57h-.27q-12.87,6.12-14.07,6.11,18.91-12,32.14-21.51,4.24-2,4.25-2.39h-.53q-16.41,7.7-17.54,8l-.26-.54q1.59-2.31,4-11.15A176.57,176.57,0,0,0,706,374.2q11.22-2.93,37.45-5.58h.27a33.15,33.15,0,0,1,13.81,2.92c2.52-.7,6.51-2.48,12-5.31A33.59,33.59,0,0,0,773.7,364.37ZM674.89,414h.27a100.13,100.13,0,0,0,17.8-7.7l5.31-3.19v-.53q-8.84,2.38-20.45,9A5.36,5.36,0,0,0,674.89,414Zm5.32,8.24h.26q12.28-4.18,15.14-7.44h-.26A53.27,53.27,0,0,0,681.27,421Zm19.39,6.9h.26q12.42-7.37,15.41-9.56c3-3.28,4.56-6.37,4.78-9.3q0-4.51-7.7-4.51h-.8a21.54,21.54,0,0,0-4.25,1.33q-2.65,8-7.44,20.45A3.26,3.26,0,0,1,699.6,429.18ZM711,438.74h.53a85.54,85.54,0,0,0,17.53-7.43,37.58,37.58,0,0,0,5.31-3.19l.27-.53h-.27q-11.68,3.78-15.14,6.37Q711.15,438.36,711,438.74Zm22-27.62v.27A47.81,47.81,0,0,0,748.74,404h-.27A57.12,57.12,0,0,0,733.06,411.12Z" transform="translate(-68.21 -346.21)" style="fill:#23272a"/><path d="M856.18,369h.26q-1.19,1.26-9.29,5.84l-32.41,21.52h.53q3.19-2.33,15.68-6.91l24.43-11.15v.26l-13.55,9q-5.57,47.68-6.1,51H836q15.27-7.17,15.94-7.17v.27q-3.52,3.18-13,8.23a198.27,198.27,0,0,1-22.57,14.87l-.8,1.07h.26q15.62-7.38,18.33-8.24l.27.53v.8a62.31,62.31,0,0,0-1.33,11.16q7.7-4.26,9.83-4.25-1.8,1.65-11.69,7.43a119.19,119.19,0,0,1-12.48,8.24l-.27.53h.27q4.71-1.92,13.28-6.11l.26.53q-.79,3.86-2.65,23.64-1,3.06-2.13,13.28h-.26q-3.26-2.85-17.53-5.31h-1.86l-7.71,1.06a16.83,16.83,0,0,1-7.7-2.12l.53-3.46h-.26q-6,3.46-8.24,3.46c.18-.36,3.19-2.3,9-5.85q0-1.32,8.5-5.84,4.18-3.12,9.3-6.37H811l-34,15.14v-.27a47.73,47.73,0,0,1,8-5.05q4.25-3.18,10.1-6.9a49,49,0,0,1,.79-5.05q-3.18,0-19.65,3.45-4.72,0-5.58,2.93-2,6.11-3.72,6.1-3.06,2.54-14.87,9.3l-.27.53h.27l13.54-6.11.27.53-7.71,14.61c0,1.6-1.85,2.39-5.57,2.39h-4.52q-5.77,0-17.53-5.84a12.06,12.06,0,0,0-3.19-.53h-4.78a.47.47,0,0,1-.53-.53q.74-.46,3.72-6.38l20.45-13,3.46-2.39h-.27q-1.73,1.53-15.41,6.64l-17.79,8.23v-.26q13.14-9,16.73-10.63l4.78-8.23a47.2,47.2,0,0,0,4.25-7.17q9-5.33,18.33-11.69A137.1,137.1,0,0,1,773,450.56h-.27q-35.46,15.68-44.62,20.19h-.53v-.26q.74-.87,12-7.71A64.62,64.62,0,0,1,751,455.61q.74-.6,3.72-6.64,7.77-11.76,9.83-16.47,7.23-4.11,22.31-14.34c1.6-.49,2.39-.93,2.39-1.33v-.26q-2.93,2.06-12.75,5.57-9.3,5.19-14.08,6.38V428c6.38-3.46,9.57-6,9.57-7.71q7.23-11.41,9-15.14,4.79-2.72,17-10.89,3.18-1.39,4-2.65h-.26q-1.34,1-13.55,5.84-20.05,9.82-22.31,9.83,1.18-1.2,9.29-5.85,9.63-7,13.55-8.76a81.9,81.9,0,0,1,6.11-10.09q2.38-1.53,14.61-2.66l24.7-4.25h.8v.27a97.29,97.29,0,0,1-9.3,5.84c-.71.53-1.06.89-1.06,1.06v.27q4-2.4,17.8-7.71Q855.51,369,856.18,369ZM763.74,470.49H764a71.8,71.8,0,0,1,9-3.19,81.9,81.9,0,0,0,10.09-6.11h-.26Q768.19,465.77,763.74,470.49Zm41.71-51.8q-.74,2.65-6.38,11.69-2.25,5.17-10.36,19.39v.53H789q2.91-.8,11.95-2.39.8-12.23,3.72-12.22l16.2-10.63h-.53q-14.28,6.72-16.47,7.44a2,2,0,0,1-.26-.79,111.77,111.77,0,0,0,2.39-13Zm-.27-8.23v.26h.8a87.91,87.91,0,0,0,16.73-7.17,39.1,39.1,0,0,1,5.31-2.92l.53-.8v-.26h-.26a105.9,105.9,0,0,0-19.39,8.23Z" transform="translate(-68.21 -346.21)" style="fill:#23272a"/><path d="M943.83,371.81h.27v.26q-1.26,1.2-9,5.85a94.29,94.29,0,0,1-14.61,9.29c-.89.71-1.33,1.16-1.33,1.33v.27q3.45-2.4,12.75-5.58,15.68-7.44,16.73-7.44h2.92q6.59,0,15.94,5.31a16.76,16.76,0,0,1,6.64,13.82v.53q-7.83,5.71-21.78,14.34h.27a154.16,154.16,0,0,1,17.26-7.44q9.63-4.77,10.36-4.78h.27c0,.23-2.22,1.73-6.64,4.52a56.79,56.79,0,0,0-2.92,10.36q-1.06,1.32-15.68,10.36v.26h.27q1.59-1.19,14.08-6.11,8.16-4.24,9.56-4.51h.27q-1.39,1.79-12.75,8-.67.66-6.11,9-14.82,15.46-19.66,17.79c-.18.54-.35.8-.53.8a31.33,31.33,0,0,1,2.39,7.17v.27q-2.26,1.78-11.42,7.44a60.76,60.76,0,0,1-8.77,5.57V469q3.79-2.25,21.25-9.29,15.34-7.38,17.27-8V452q-2.4,1.86-15.67,10.09,6.38,18.66,12.75,34a24.2,24.2,0,0,1,.53,2.92A21.38,21.38,0,0,1,951,500.9q-3.37,0-16.2-4.78h-1.59q-2.13,0-10.63,2.39h-.26q-1.47-.47-5.58-12.22-6.78-13.55-11.69-25.77c-.26,0-.53-.26-.79-.79a41.41,41.41,0,0,1-8.24,2.92,83.34,83.34,0,0,1-4.25,11.69q0,4.77-6.91,7.43-11.42,7.71-12,7.71v.26h.53q2.13-1.46,13.82-6.11a70.33,70.33,0,0,1,12.48-5.57H900q-.46.72-12,8-.79,0-5.84,15.41-4.19,3.45-13.28,5.84-6.31,1.86-17.27,1.86Q842,512.25,836.79,516a.24.24,0,0,0-.27-.27Q842.64,500,844,495.59q4.57-2.46,21.52-13.82h-.27q-2.65,1.8-16.47,7.18-15.79,7.43-16.47,7.43H832L847.68,486q.52-2.25,5.31-14.87c0-1.68,1.68-3.28,5-4.78l31.61-20.72h-.27Q849,463.46,839.44,468.23h-.53V468q.35-.6,10.1-6.37a44,44,0,0,1,9.56-6.11c.53-.58,1.42-3.14,2.66-7.7l13-34.53.53-1.86h-.26q-17.14,7.89-19.13,8.5v-.27l46.48-30.28h-.26a114.74,114.74,0,0,1-12,5.31,46.86,46.86,0,0,1-9.83,4.52,2,2,0,0,1-.27-.8c2.53-7.79,4.47-11.69,5.85-11.69q1.13,0,41.17-7.17,1.18-.19,10.62-4.78A31.91,31.91,0,0,0,943.83,371.81ZM867.6,470.88v.27h.26Q880,467,883,463.71v-.26A59.27,59.27,0,0,0,867.6,470.88Zm2.66-29.75v.27h.53a73.59,73.59,0,0,1,9-3.19q10.29-5.83,10.36-6.11h-.53q-7.11,1.53-18.33,8.24C871.32,440.87,871,441.13,870.26,441.13Zm45.42-29.21h-1.07q-2.19,8-5,8l-10.89,7.17h.53a62.13,62.13,0,0,1,11.42-5.32l.27.54A34.14,34.14,0,0,0,908,430h.53q9.16-1.46,13-4.78,5.31-4.32,5.31-9.56,0-3.72-3.18-3.72c0-.36-1.42-.62-4.25-.8A8.85,8.85,0,0,1,915.68,411.92Zm3.18,26h.54q2.31-1.06,12-4.52,9.49-5.24,10.89-6.64h-.53a82,82,0,0,0-14.35,5.85C922.14,435.42,919.31,437.2,918.86,438Zm9,2.65A66.45,66.45,0,0,0,942.77,434l.53-.79v-.27a60.93,60.93,0,0,0-15.4,7.17Zm1.59-48.34v.27h.8a72.67,72.67,0,0,0,17-7.71,9,9,0,0,0,2.13-1.59h-.53a73.63,73.63,0,0,1-9.56,3.45A50.3,50.3,0,0,1,929.49,392.26Zm0,10.63v.26q6.57-1.12,23.9-10.09,6.78-3.45,7.44-4.78V388l-10.36,3.45q-11.49,5.44-19.92,10.36C929.84,402.35,929.49,402.71,929.49,402.89Z" transform="translate(-68.21 -346.21)" style="fill:#23272a"/><path d="M752.55,524.84h8.32l15.27,25.44h.42l-.42-7.32V524.84h7.1v37.95h-7.53L759.6,535.91h-.42l.42,7.32v19.56h-7.05Z" transform="translate(-68.21 -346.21)" style="fill:#1a1a1a"/><path d="M796.54,533.32a4.53,4.53,0,0,1-3.15-1.3,4.52,4.52,0,0,1-1-1.41,4.65,4.65,0,0,1,0-3.49,4.52,4.52,0,0,1,1-1.41,4.5,4.5,0,0,1,6.33,0,4.41,4.41,0,0,1,0,6.31A4.39,4.39,0,0,1,796.54,533.32Zm-3.44,29.47v-26H800v26Z" transform="translate(-68.21 -346.21)" style="fill:#1a1a1a"/><path d="M820.76,575.08a15.65,15.65,0,0,1-4.9-.71,14.06,14.06,0,0,1-3.74-1.86,12.54,12.54,0,0,1-2.65-2.52,9.73,9.73,0,0,1-1.53-2.75l6.62-2.65a6.31,6.31,0,0,0,2.44,3.2,7.14,7.14,0,0,0,9-1,8.5,8.5,0,0,0,1.9-5.87v-1.8h-.42a8.41,8.41,0,0,1-3.21,2.67,10.39,10.39,0,0,1-4.69,1,11.4,11.4,0,0,1-4.53-.95,11.84,11.84,0,0,1-3.89-2.7,13.82,13.82,0,0,1-3.82-9.74,14,14,0,0,1,3.82-9.79,11.84,11.84,0,0,1,3.89-2.7,11.39,11.39,0,0,1,4.53-.94,10.39,10.39,0,0,1,4.69,1,8.41,8.41,0,0,1,3.21,2.67h.42v-2.8h6.63v24.11a16.43,16.43,0,0,1-1,5.91,12.76,12.76,0,0,1-2.81,4.45,12.11,12.11,0,0,1-4.32,2.81A15.36,15.36,0,0,1,820.76,575.08Zm.27-18.55a6.89,6.89,0,0,0,2.51-.47,6.31,6.31,0,0,0,2.2-1.38,6.78,6.78,0,0,0,1.54-2.23,7.51,7.51,0,0,0,.58-3.05,7.68,7.68,0,0,0-.58-3.07,6.8,6.8,0,0,0-1.54-2.26,6.31,6.31,0,0,0-2.2-1.38,7.11,7.11,0,0,0-2.51-.47,6.92,6.92,0,0,0-2.49.47,6.32,6.32,0,0,0-2.18,1.4,7.15,7.15,0,0,0-1.53,2.27,8.15,8.15,0,0,0,0,6.09,6.75,6.75,0,0,0,1.53,2.23,6.41,6.41,0,0,0,2.18,1.38A6.71,6.71,0,0,0,821,556.53Z" transform="translate(-68.21 -346.21)" style="fill:#1a1a1a"/><path d="M843.07,524.84H850v10.65l-.43,4.72H850a8.63,8.63,0,0,1,3.2-3.05,9.27,9.27,0,0,1,4.69-1.19q5,0,7.45,3c1.61,2,2.41,4.68,2.41,8.1v15.75h-6.94v-14.9a6,6,0,0,0-1.27-4.11,4.57,4.57,0,0,0-3.55-1.4,5.17,5.17,0,0,0-2.55.61,5.66,5.66,0,0,0-1.88,1.67,8,8,0,0,0-1.17,2.46,11.21,11.21,0,0,0-.39,3v12.67h-6.95Z" transform="translate(-68.21 -346.21)" style="fill:#1a1a1a"/><path d="M877.68,542.75h-4.56v-5.93h4.56v-8h7v8H891v5.93h-6.36v10.38a7.76,7.76,0,0,0,.18,1.72,2.74,2.74,0,0,0,.72,1.34,2.62,2.62,0,0,0,2.12.87,4.61,4.61,0,0,0,1.43-.18,4.71,4.71,0,0,0,1-.51l2,6.1a11.28,11.28,0,0,1-2.63.87,14.85,14.85,0,0,1-3.1.29,9.32,9.32,0,0,1-3.52-.62,7.43,7.43,0,0,1-2.63-1.7,9.26,9.26,0,0,1-2.49-6.93Z" transform="translate(-68.21 -346.21)" style="fill:#1a1a1a"/><path d="M899,562.79V524.84h6.94v37.95Z" transform="translate(-68.21 -346.21)" style="fill:#1a1a1a"/><path d="M922.68,561.51l-10.92-24.69h7.9l6.57,15.74h.37l6.31-15.74h7.73l-16.27,37.41H916.9Z" transform="translate(-68.21 -346.21)" style="fill:#1a1a1a"/></svg>